<svg width="13" height="19" viewBox="0 0 13 19" fill="none" xmlns="http://www.w3.org/2000/svg">
<path d="M6.5 0C2.91042 0 0 2.598 0 5.80357C0 6.70131 0.228516 7.55258 0.636674 8.3109C0.659506 8.35399 6.5 18.5714 6.5 18.5714L12.2929 8.43785C12.7448 7.64781 13 6.75231 13 5.80357C13 2.598 10.0902 0 6.5 0ZM6.5 9.28571C4.34622 9.28571 2.6 7.72601 2.6 5.80357C2.6 3.88113 4.34622 2.32143 6.5 2.32143C8.65313 2.32143 10.4 3.88113 10.4 5.80357C10.4 7.72601 8.65313 9.28571 6.5 9.28571Z" fill="black"/>
</svg>
