<svg width="20" height="20" viewBox="0 0 20 20" fill="none" xmlns="http://www.w3.org/2000/svg">
<path d="M7.77778 0H1.11111C0.496667 0 0 0.496667 0 1.11111V7.77778C0 8.39222 0.496667 8.88889 1.11111 8.88889H7.77778C8.39222 8.88889 8.88889 8.39222 8.88889 7.77778V1.11111C8.88889 0.496667 8.39222 0 7.77778 0ZM18.8889 11.1111H12.2222C11.6078 11.1111 11.1111 11.6078 11.1111 12.2222V18.8889C11.1111 19.5033 11.6078 20 12.2222 20H18.8889C19.5033 20 20 19.5033 20 18.8889V12.2222C20 11.6078 19.5033 11.1111 18.8889 11.1111ZM15.5556 0C13.1044 0 11.1111 1.99333 11.1111 4.44444C11.1111 6.89556 13.1044 8.88889 15.5556 8.88889C18.0067 8.88889 20 6.89556 20 4.44444C20 1.99333 18.0067 0 15.5556 0ZM4.44444 11.1111C1.99333 11.1111 0 13.1044 0 15.5556C0 18.0067 1.99333 20 4.44444 20C6.89556 20 8.88889 18.0067 8.88889 15.5556C8.88889 13.1044 6.89556 11.1111 4.44444 11.1111Z" fill="black"/>
</svg>
