<svg width="22" height="20" viewBox="0 0 22 20" fill="none" xmlns="http://www.w3.org/2000/svg">
<path d="M21.8323 3.93038L20.9937 2.12947C20.7806 1.68131 20.3847 1.34862 19.9049 1.22489C17.2406 0.49903 14.1846 0.0549896 11.0337 0C7.81404 0.0563643 4.75798 0.49903 1.84078 1.28401C1.61395 1.34999 1.21802 1.68268 1.00906 2.12122L0.166344 3.93176C0.0632381 4.14072 0.00274948 4.38679 0.00137474 4.64662V5.84264C0 5.85914 0 5.87839 0 5.89901C0 6.43791 0.437168 6.87507 0.976067 6.87507C0.991189 6.87507 1.00631 6.87507 1.02143 6.8737H4.48303C5.04943 6.85995 5.50309 6.39804 5.50309 5.8289C5.50309 5.80415 5.50172 5.78078 5.50034 5.75603V4.604C5.50034 4.5985 5.50034 4.593 5.50034 4.58751C5.50034 4.27269 5.66394 3.99637 5.91002 3.8369C7.2119 3.13853 8.75436 2.72886 10.3917 2.72886C10.6061 2.72886 10.8178 2.73573 11.0296 2.74948C11.1973 2.73436 11.4255 2.72611 11.6564 2.72611C13.2759 2.72611 14.8005 3.12616 16.1395 3.83277C16.3361 3.96887 16.4997 4.2452 16.4997 4.56001V4.57788V5.75878C16.4983 5.77941 16.4969 5.80415 16.4969 5.82752C16.4969 6.39529 16.9506 6.85858 17.5156 6.87232H20.9813C20.9937 6.87232 21.0088 6.8737 21.0239 6.8737C21.5628 6.8737 22 6.43653 22 5.89763C22 5.87839 22 5.85777 21.9986 5.83852V4.64525C21.9972 4.38542 21.9368 4.13934 21.8295 3.92076L21.8323 3.93038Z" fill="black"/>
<path d="M16.4981 10.0343C15.6403 8.93859 15.122 7.53911 15.122 6.02002C15.122 5.98153 15.122 5.94304 15.1234 5.90454V5.49762H13.7487V6.87236H8.24969V5.49762H6.87495V5.95128C6.87495 5.98428 6.87632 6.02277 6.87632 6.06126C6.87632 7.58035 6.35804 8.97846 5.48921 10.0893L1.37598 15.1208V19.245H20.6224V15.1208L16.4981 10.0343ZM10.9992 16.4955C8.72122 16.4955 6.87495 14.6493 6.87495 12.3713C6.87495 10.0934 8.72122 8.2471 10.9992 8.2471C13.2771 8.2471 15.1234 10.0934 15.1234 12.3713C15.1234 14.6493 13.2771 16.4955 10.9992 16.4955Z" fill="black"/>
<path d="M13.7487 12.3713C13.7487 13.8904 12.5183 15.1208 10.9992 15.1208C9.48015 15.1208 8.24976 13.8904 8.24976 12.3713C8.24976 10.8522 9.48015 9.62183 10.9992 9.62183C12.5183 9.62183 13.7487 10.8522 13.7487 12.3713Z" fill="black"/>
</svg>
