<?xml version="1.0" standalone="no"?>
<!DOCTYPE svg PUBLIC "-//W3C//DTD SVG 20010904//EN"
 "http://www.w3.org/TR/2001/REC-SVG-20010904/DTD/svg10.dtd">
<svg version="1.0" xmlns="http://www.w3.org/2000/svg"
 width="24.000000pt" height="24.000000pt" viewBox="0 0 24.000000 24.000000"
 preserveAspectRatio="xMidYMid meet">

<g transform="translate(0.000000,24.000000) scale(0.100000,-0.100000)"
fill="#000000" stroke="none">
<path d="M94 215 c-4 -9 -13 -13 -24 -10 -21 7 -43 -17 -35 -37 4 -9 -1 -18
-9 -21 -21 -8 -21 -46 0 -54 8 -3 13 -12 9 -21 -8 -20 14 -44 35 -37 11 3 20
-1 24 -10 7 -20 45 -20 52 0 4 9 13 13 24 10 21 -7 43 17 35 37 -4 9 1 18 9
21 20 8 21 46 1 53 -9 4 -13 13 -10 24 7 21 -17 43 -37 35 -9 -4 -18 1 -21 9
-8 20 -46 21 -53 1z m46 -10 c0 -11 8 -15 28 -13 24 3 27 0 24 -24 -2 -20 2
-28 13 -28 8 0 15 -9 15 -20 0 -11 -7 -20 -15 -20 -11 0 -15 -8 -13 -28 3 -24
0 -27 -24 -24 -20 2 -28 -2 -28 -13 0 -8 -9 -15 -20 -15 -11 0 -20 7 -20 15 0
11 -8 15 -27 13 -25 -3 -28 0 -25 25 2 19 -2 27 -13 27 -8 0 -15 9 -15 20 0
11 7 20 15 20 11 0 15 8 13 28 -3 24 0 27 25 24 19 -2 27 2 27 13 0 8 9 15 20
15 11 0 20 -7 20 -15z"/>
<path d="M86 154 c-31 -30 -9 -84 34 -84 24 0 50 26 50 50 0 24 -26 50 -50 50
-10 0 -26 -7 -34 -16z m64 -9 c26 -32 -13 -81 -47 -59 -10 6 -19 19 -21 28 -8
38 43 61 68 31z"/>
</g>
</svg>
