<svg width="321" height="70" viewBox="0 0 321 70" fill="none" xmlns="http://www.w3.org/2000/svg">
<path d="M0.936 1.8H17.064C22.312 1.8 26.248 3.208 28.872 6.024C31.496 8.84 32.808 12.968 32.808 18.408V52.392C32.808 57.832 31.496 61.96 28.872 64.776C26.248 67.592 22.312 69 17.064 69H0.936V1.8ZM16.872 59.4C18.6 59.4 19.912 58.888 20.808 57.864C21.768 56.84 22.248 55.176 22.248 52.872V17.928C22.248 15.624 21.768 13.96 20.808 12.936C19.912 11.912 18.6 11.4 16.872 11.4H11.496V59.4H16.872ZM57.12 69.96C51.936 69.96 47.968 68.488 45.216 65.544C42.464 62.6 41.088 58.44 41.088 53.064V17.736C41.088 12.36 42.464 8.2 45.216 5.256C47.968 2.312 51.936 0.839996 57.12 0.839996C62.304 0.839996 66.272 2.312 69.024 5.256C71.776 8.2 73.152 12.36 73.152 17.736V53.064C73.152 58.44 71.776 62.6 69.024 65.544C66.272 68.488 62.304 69.96 57.12 69.96ZM57.12 60.36C60.768 60.36 62.592 58.152 62.592 53.736V17.064C62.592 12.648 60.768 10.44 57.12 10.44C53.472 10.44 51.648 12.648 51.648 17.064V53.736C51.648 58.152 53.472 60.36 57.12 60.36ZM82.2135 1.8H111.013V11.4H92.7735V29.16H107.269V38.76H92.7735V59.4H111.013V69H82.2135V1.8ZM151.183 69.96C146.127 69.96 142.255 68.52 139.567 65.64C136.943 62.76 135.631 58.696 135.631 53.448V17.352C135.631 12.104 136.943 8.04 139.567 5.16C142.255 2.28 146.127 0.839996 151.183 0.839996C156.239 0.839996 160.079 2.28 162.703 5.16C165.391 8.04 166.735 12.104 166.735 17.352V24.456H156.751V16.68C156.751 12.52 154.991 10.44 151.471 10.44C147.951 10.44 146.191 12.52 146.191 16.68V54.216C146.191 58.312 147.951 60.36 151.471 60.36C154.991 60.36 156.751 58.312 156.751 54.216V43.944H166.735V53.448C166.735 58.696 165.391 62.76 162.703 65.64C160.079 68.52 156.239 69.96 151.183 69.96ZM174.974 1.8H203.774V11.4H185.534V29.16H200.03V38.76H185.534V59.4H203.774V69H174.974V1.8ZM211.769 1.8H227.417C232.857 1.8 236.825 3.08 239.321 5.64C241.817 8.136 243.065 12.008 243.065 17.256V21.384C243.065 28.36 240.761 32.776 236.153 34.632V34.824C238.713 35.592 240.505 37.16 241.529 39.528C242.617 41.896 243.161 45.064 243.161 49.032V60.84C243.161 62.76 243.225 64.328 243.353 65.544C243.481 66.696 243.801 67.848 244.313 69H233.561C233.177 67.912 232.921 66.888 232.793 65.928C232.665 64.968 232.601 63.24 232.601 60.744V48.456C232.601 45.384 232.089 43.24 231.065 42.024C230.105 40.808 228.409 40.2 225.977 40.2H222.329V69H211.769V1.8ZM226.169 30.6C228.281 30.6 229.849 30.056 230.873 28.968C231.961 27.88 232.505 26.056 232.505 23.496V18.312C232.505 15.88 232.057 14.12 231.161 13.032C230.329 11.944 228.985 11.4 227.129 11.4H222.329V30.6H226.169ZM260.476 11.4H249.436V1.8H282.076V11.4H271.036V69H260.476V11.4ZM303.997 69.96C298.813 69.96 294.845 68.488 292.093 65.544C289.341 62.6 287.965 58.44 287.965 53.064V17.736C287.965 12.36 289.341 8.2 292.093 5.256C294.845 2.312 298.813 0.839996 303.997 0.839996C309.181 0.839996 313.149 2.312 315.901 5.256C318.653 8.2 320.029 12.36 320.029 17.736V53.064C320.029 58.44 318.653 62.6 315.901 65.544C313.149 68.488 309.181 69.96 303.997 69.96ZM303.997 60.36C307.645 60.36 309.469 58.152 309.469 53.736V17.064C309.469 12.648 307.645 10.44 303.997 10.44C300.349 10.44 298.525 12.648 298.525 17.064V53.736C298.525 58.152 300.349 60.36 303.997 60.36Z" fill="#F2B705"/>
</svg>
