<svg width="102" height="24" viewBox="0 0 102 24" fill="none" xmlns="http://www.w3.org/2000/svg">
<path d="M0.4995 0.599998H5.8755C7.62483 0.599998 8.93683 1.06933 9.8115 2.008C10.6862 2.94667 11.1235 4.32267 11.1235 6.136V17.464C11.1235 19.2773 10.6862 20.6533 9.8115 21.592C8.93683 22.5307 7.62483 23 5.8755 23H0.4995V0.599998ZM5.8115 19.8C6.3875 19.8 6.82483 19.6293 7.1235 19.288C7.4435 18.9467 7.6035 18.392 7.6035 17.624V5.976C7.6035 5.208 7.4435 4.65333 7.1235 4.312C6.82483 3.97067 6.3875 3.8 5.8115 3.8H4.0195V19.8H5.8115ZM18.5875 23.32C16.8595 23.32 15.5368 22.8293 14.6195 21.848C13.7022 20.8667 13.2435 19.48 13.2435 17.688V5.912C13.2435 4.12 13.7022 2.73333 14.6195 1.752C15.5368 0.770665 16.8595 0.279999 18.5875 0.279999C20.3155 0.279999 21.6382 0.770665 22.5555 1.752C23.4728 2.73333 23.9315 4.12 23.9315 5.912V17.688C23.9315 19.48 23.4728 20.8667 22.5555 21.848C21.6382 22.8293 20.3155 23.32 18.5875 23.32ZM18.5875 20.12C19.8035 20.12 20.4115 19.384 20.4115 17.912V5.688C20.4115 4.216 19.8035 3.48 18.5875 3.48C17.3715 3.48 16.7635 4.216 16.7635 5.688V17.912C16.7635 19.384 17.3715 20.12 18.5875 20.12ZM26.312 0.599998H35.912V3.8H29.832V9.72H34.664V12.92H29.832V19.8H35.912V23H26.312V0.599998ZM48.022 23.32C46.3367 23.32 45.046 22.84 44.15 21.88C43.2753 20.92 42.838 19.5653 42.838 17.816V5.784C42.838 4.03467 43.2753 2.68 44.15 1.72C45.046 0.759999 46.3367 0.279999 48.022 0.279999C49.7073 0.279999 50.9873 0.759999 51.862 1.72C52.758 2.68 53.206 4.03467 53.206 5.784V8.152H49.878V5.56C49.878 4.17333 49.2913 3.48 48.118 3.48C46.9447 3.48 46.358 4.17333 46.358 5.56V18.072C46.358 19.4373 46.9447 20.12 48.118 20.12C49.2913 20.12 49.878 19.4373 49.878 18.072V14.648H53.206V17.816C53.206 19.5653 52.758 20.92 51.862 21.88C50.9873 22.84 49.7073 23.32 48.022 23.32ZM55.312 0.599998H64.912V3.8H58.832V9.72H63.664V12.92H58.832V19.8H64.912V23H55.312V0.599998ZM66.937 0.599998H72.153C73.9663 0.599998 75.289 1.02667 76.121 1.88C76.953 2.712 77.369 4.00267 77.369 5.752V7.128C77.369 9.45333 76.601 10.9253 75.065 11.544V11.608C75.9183 11.864 76.5157 12.3867 76.857 13.176C77.2197 13.9653 77.401 15.0213 77.401 16.344V20.28C77.401 20.92 77.4223 21.4427 77.465 21.848C77.5077 22.232 77.6143 22.616 77.785 23H74.201C74.073 22.6373 73.9877 22.296 73.945 21.976C73.9023 21.656 73.881 21.08 73.881 20.248V16.152C73.881 15.128 73.7103 14.4133 73.369 14.008C73.049 13.6027 72.4837 13.4 71.673 13.4H70.457V23H66.937V0.599998ZM71.737 10.2C72.441 10.2 72.9637 10.0187 73.305 9.656C73.6677 9.29333 73.849 8.68533 73.849 7.832V6.104C73.849 5.29333 73.6997 4.70667 73.401 4.344C73.1237 3.98133 72.6757 3.8 72.057 3.8H70.457V10.2H71.737ZM82.5328 3.8H78.8528V0.599998H89.7328V3.8H86.0528V23H82.5328V3.8ZM96.4 23.32C94.672 23.32 93.3493 22.8293 92.432 21.848C91.5147 20.8667 91.056 19.48 91.056 17.688V5.912C91.056 4.12 91.5147 2.73333 92.432 1.752C93.3493 0.770665 94.672 0.279999 96.4 0.279999C98.128 0.279999 99.4507 0.770665 100.368 1.752C101.285 2.73333 101.744 4.12 101.744 5.912V17.688C101.744 19.48 101.285 20.8667 100.368 21.848C99.4507 22.8293 98.128 23.32 96.4 23.32ZM96.4 20.12C97.616 20.12 98.224 19.384 98.224 17.912V5.688C98.224 4.216 97.616 3.48 96.4 3.48C95.184 3.48 94.576 4.216 94.576 5.688V17.912C94.576 19.384 95.184 20.12 96.4 20.12Z" fill="#F2B705"/>
</svg>
