<?xml version="1.0" standalone="no"?>
<!DOCTYPE svg PUBLIC "-//W3C//DTD SVG 20010904//EN"
 "http://www.w3.org/TR/2001/REC-SVG-20010904/DTD/svg10.dtd">
<svg version="1.0" xmlns="http://www.w3.org/2000/svg"
 width="24.000000pt" height="24.000000pt" viewBox="0 0 24.000000 24.000000"
 preserveAspectRatio="xMidYMid meet">

<g transform="translate(0.000000,24.000000) scale(0.100000,-0.100000)"
fill="#000000" stroke="none">
<path d="M20 220 c-17 -17 -20 -33 -20 -100 0 -67 3 -83 20 -100 17 -17 33
-20 100 -20 109 0 120 11 120 120 0 67 -3 83 -20 100 -17 17 -33 20 -100 20
-67 0 -83 -3 -100 -20z m140 -40 c0 -5 -7 -10 -15 -10 -8 0 -15 -7 -15 -15 0
-8 7 -15 15 -15 8 0 15 -7 15 -15 0 -8 -6 -15 -14 -15 -9 0 -16 -12 -18 -33
-4 -42 -22 -42 -26 1 -2 17 -7 32 -13 32 -5 0 -9 7 -9 15 0 8 4 15 9 15 5 0
12 11 15 25 5 18 13 25 31 25 14 0 25 -4 25 -10z"/>
</g>
</svg>
