<svg width="25" height="20" viewBox="0 0 25 20" fill="none" xmlns="http://www.w3.org/2000/svg">
<path d="M22.9167 0H2.08333C0.93316 0 0 0.93316 0 2.08333V17.3611C0 18.5113 0.93316 19.4444 2.08333 19.4444H22.9167C24.0668 19.4444 25 18.5113 25 17.3611V2.08333C25 0.93316 24.0668 0 22.9167 0ZM22.9167 17.3611H2.08333V2.08333H22.9167V17.3611ZM9.02778 9.72222C10.5599 9.72222 11.8056 8.47656 11.8056 6.94444C11.8056 5.41233 10.5599 4.16667 9.02778 4.16667C7.49566 4.16667 6.25 5.41233 6.25 6.94444C6.25 8.47656 7.49566 9.72222 9.02778 9.72222ZM5.13889 15.2778H12.9167C13.4549 15.2778 13.8889 14.9045 13.8889 14.4444V13.6111C13.8889 12.2309 12.5825 11.1111 10.9722 11.1111C10.5035 11.1111 10.1606 11.4583 9.02778 11.4583C7.86024 11.4583 7.57812 11.1111 7.08333 11.1111C5.47309 11.1111 4.16667 12.2309 4.16667 13.6111V14.4444C4.16667 14.9045 4.60069 15.2778 5.13889 15.2778ZM15.625 12.5H20.4861C20.6771 12.5 20.8333 12.3437 20.8333 12.1528V11.4583C20.8333 11.2674 20.6771 11.1111 20.4861 11.1111H15.625C15.434 11.1111 15.2778 11.2674 15.2778 11.4583V12.1528C15.2778 12.3437 15.434 12.5 15.625 12.5ZM15.625 9.72222H20.4861C20.6771 9.72222 20.8333 9.56597 20.8333 9.375V8.68055C20.8333 8.48958 20.6771 8.33333 20.4861 8.33333H15.625C15.434 8.33333 15.2778 8.48958 15.2778 8.68055V9.375C15.2778 9.56597 15.434 9.72222 15.625 9.72222ZM15.625 6.94444H20.4861C20.6771 6.94444 20.8333 6.78819 20.8333 6.59722V5.90278C20.8333 5.7118 20.6771 5.55555 20.4861 5.55555H15.625C15.434 5.55555 15.2778 5.7118 15.2778 5.90278V6.59722C15.2778 6.78819 15.434 6.94444 15.625 6.94444Z" fill="black"/>
</svg>
