<svg width="25" height="25" viewBox="0 0 25 25" fill="none" xmlns="http://www.w3.org/2000/svg">
<path d="M12.4999 11.4583C13.324 11.4583 14.1296 11.214 14.8148 10.7561C15.5 10.2983 16.0341 9.64755 16.3494 8.88619C16.6648 8.12483 16.7473 7.28705 16.5865 6.4788C16.4258 5.67055 16.0289 4.92812 15.4462 4.3454C14.8635 3.76268 14.121 3.36584 13.3128 3.20507C12.5045 3.0443 11.6668 3.12681 10.9054 3.44218C10.144 3.75754 9.4933 4.2916 9.03546 4.9768C8.57762 5.66201 8.33325 6.46759 8.33325 7.29168C8.33325 8.39675 8.77224 9.45655 9.55364 10.238C10.335 11.0194 11.3949 11.4583 12.4999 11.4583Z" fill="#231F20"/>
<path d="M18.7499 21.875C19.0262 21.875 19.2911 21.7653 19.4865 21.5699C19.6818 21.3746 19.7916 21.1096 19.7916 20.8333C19.7916 18.8995 19.0234 17.0448 17.6559 15.6774C16.2885 14.3099 14.4338 13.5417 12.4999 13.5417C10.566 13.5417 8.71138 14.3099 7.34393 15.6774C5.97648 17.0448 5.20825 18.8995 5.20825 20.8333C5.20825 21.1096 5.318 21.3746 5.51335 21.5699C5.7087 21.7653 5.97365 21.875 6.24992 21.875H18.7499Z" fill="#231F20"/>
</svg>
