<svg width="20" height="20" viewBox="0 0 20 20" fill="none" xmlns="http://www.w3.org/2000/svg">
<path d="M17.8571 10H6.78571V5.97268C6.78571 4.42581 8.20089 3.14066 9.96875 3.12503C11.7545 3.10941 13.2143 4.37894 13.2143 5.93753V6.56253C13.2143 7.08206 13.692 7.50002 14.2857 7.50002H15.7143C16.308 7.50002 16.7857 7.08206 16.7857 6.56253V5.93753C16.7857 2.65628 13.7277 -0.0116803 9.97768 3.84577e-05C6.22768 0.0117572 3.21429 2.71488 3.21429 5.99612V10H2.14286C0.959821 10 0 10.8399 0 11.875V18.125C0 19.1602 0.959821 20 2.14286 20H17.8571C19.0402 20 20 19.1602 20 18.125V11.875C20 10.8399 19.0402 10 17.8571 10Z" fill="black"/>
</svg>
